<svg width="368.656" height="180.656" enable-background="new 0 0 368.656 180.656" viewBox="0 0 368.656 180.656" xmlns="http://www.w3.org/2000/svg">
 <g>
  <g stroke="null" transform="rotate(11.758121490478516 160.15464782714852,92.1686706542969) " id="svg_1">
     <path stroke="null" id="svg_4" d="m4.371085,163.682868c-0.010757,0.006454 -0.022589,0.010757 -0.034421,0.018286c-4.331659,2.251344 -6.212979,7.453208 -4.318752,11.95482c1.899605,4.516672 6.954104,6.808891 11.603082,5.2621l131.068461,-43.608096l-24.507705,40.021865c-1.780208,2.907493 -1.403729,6.645391 0.92076,9.139834c2.324489,2.493366 6.02689,3.132305 9.053781,1.558623l25.701681,-13.355322c0.737899,-0.382933 1.408031,-0.885263 1.983506,-1.48763l76.140181,-79.534945l93.966997,-49.030469c35.588018,-19.184292 31.465036,-33.931511 29.354602,-37.993181c-1.63607,-3.149515 -5.29437,-7.372534 -13.423088,-9.605592c-8.244889,-2.265328 -19.384364,-2.084618 -34.047682,0.552886c-4.895302,0.879885 -7.597345,0.805665 -10.458586,0.727142c-10.058442,-0.275367 -16.881317,0.399068 -50.757969,18.002148l-185.283583,96.287183l-71.853699,-37.290779c-2.709573,-1.40588 -5.933308,-1.404804 -8.642881,0.004303l-12.107563,6.292577c-2.492291,1.295088 -4.272498,3.638938 -4.8512,6.387234c-0.578702,2.749372 0.105414,5.612763 1.863033,7.80172l49.87163,62.117953l-11.240586,5.777339z"/>
  </g>
  <path id="svg_12" d="m-3.465246,141.343388l378.169379,-91.931854l0.882349,-56.764441l-382.645272,5.294093l3.593545,143.402202z" stroke-opacity="null" stroke-width="1.5"/>
 </g>
</svg>