<svg id="Capa_1" enable-background="new 0 0 511.881 511.881" height="512" viewBox="0 0 511.881 511.881" width="512" xmlns="http://www.w3.org/2000/svg">
	<g>
		<g>
			<path fill="transparent" d="m486.94 219.88c9.63 9.63 14.94 22.44 14.94 36.06s-5.31 26.43-14.94 36.06l-194.94 194.94c-9.63 9.63-22.44 14.94-36.06 14.94s-26.43-5.31-36.06-14.94l-194.94-194.94c-9.63-9.63-14.94-22.44-14.94-36.06s5.31-26.43 14.94-36.06l194.94-194.94c9.63-9.63 22.44-14.94 36.06-14.94s26.43 5.31 36.06 14.94z"/>
			<path fill="#ffea73" d="m127.063 127.063h257.755v257.755h-257.755z" transform="matrix(.707 -.707 .707 .707 -106.014 255.94)"/>
		</g>
		<g>
			<path fill="#343e42" d="m445.271 248.869-182.26-182.26c-3.905-3.904-10.237-3.904-14.143 0l-182.26 182.26c-3.905 3.905-3.905 10.237 0 14.143l182.26 182.26c1.953 1.952 4.512 2.929 7.071 2.929s5.119-.977 7.071-2.929l182.26-182.26c3.906-3.906 3.906-10.238.001-14.143zm-189.331 175.189-168.117-168.118 168.117-168.117 168.118 168.117z"/>
			<circle fill="#343e42" cx="388.94" cy="389.94" r="10"/>
			<path fill="#343e42" d="m17.869 299.071 194.94 194.94c11.523 11.523 26.841 17.869 43.131 17.869s31.608-6.346 43.131-17.869l65.166-65.165c3.905-3.905 3.905-10.237 0-14.143-3.905-3.904-10.237-3.904-14.143 0l-65.165 65.165c-7.746 7.746-18.041 12.012-28.989 12.012s-21.243-4.266-28.989-12.012l-194.94-194.94c-7.745-7.744-12.011-18.039-12.011-28.988s4.266-21.243 12.011-28.988l194.94-194.94c7.746-7.746 18.041-12.012 28.989-12.012s21.243 4.266 28.989 12.012l194.94 194.94c7.746 7.745 12.011 18.04 12.011 28.988s-4.266 21.243-12.011 28.988l-66.165 66.165c-3.905 3.905-3.905 10.237 0 14.143 3.905 3.904 10.238 3.904 14.142 0l66.166-66.165c11.523-11.523 17.869-26.841 17.869-43.131s-6.346-31.607-17.869-43.131l-194.94-194.94c-11.524-11.523-26.842-17.869-43.132-17.869s-31.608 6.346-43.131 17.869l-194.94 194.941c-11.523 11.523-17.869 26.84-17.869 43.13s6.346 31.608 17.869 43.131z"/>
		</g>
	</g>
</svg>